<svg xmlns="http://www.w3.org/2000/svg" viewBox="0 0 1023.99 1024"><defs><style>.cls-1{fill:#d9d9d9;}.cls-2{fill:#3e3e3e;}.cls-3{fill:#3f3f3f;}.cls-4{fill:#dadada;}.cls-5{fill:#888;}.cls-6{fill:#dbdbdb;}.cls-7{fill:#1d1d1d;}.cls-8{fill:#131313;}.cls-9{fill:#0e0e0e;}.cls-10{fill:#191919;}.cls-11{fill:#dedede;}.cls-12{fill:#141414;}.cls-13{fill:#171717;}.cls-14{fill:#878787;}.cls-15{fill:#010101;}.cls-16{fill:#020202;}.cls-17{fill:#060606;}.cls-18{fill:#070707;}.cls-19{fill:#0b0b0b;}.cls-20{fill:#333;}.cls-21{fill:#e6e6e6;}.cls-22{fill:#323232;}.cls-23{fill:#2b2b2b;}.cls-24{fill:#0a0a0a;}.cls-25{fill:#b3b3b3;}.cls-26{fill:#373737;}.cls-27{fill:#1e1e1e;}.cls-28{fill:#ddd;}.cls-29{fill:#8a8a8a;}.cls-30{fill:#d6d6d6;}.cls-31{fill:#313131;}.cls-32{fill:#2d2d2d;}.cls-33{fill:#121212;}.cls-34{fill:#828282;}.cls-35{fill:#050505;}.cls-36{fill:#1c1c1c;}.cls-37{fill:#0c0c0c;}.cls-38{fill:#202020;}.cls-39{fill:#222;}.cls-40{fill:#474747;}.cls-41{fill:#181818;}.cls-42{fill:#0d0d0d;}.cls-43{fill:#212121;}.cls-44{fill:#c5c5c5;}.cls-45{fill:#4e4e4e;}.cls-46{fill:#454545;}.cls-47{fill:#a1a1a1;}</style></defs><g id="Layer_2" data-name="Layer 2"><g id="Layer_1-2" data-name="Layer 1"><polygon class="cls-1" points="0.1 810.45 0.1 915.42 325.12 915.42 35.14 776.57 0 779.23 0.1 810.45"/><path class="cls-2" d="M.09,590Q.09,297.29,0,4.59C0,.84.85,0,4.59,0Q394.77.15,785,.09c2.09,1.56,2.53,3.82,2.4,6.19-.92,17.27-.53,34.57-1.51,51.84-.12,2-.41,4-.35,6,.64,22.14-.68,44.25-1.23,66.35-1,38.75-1.94,77.48-1.9,116.24,0,2.44.89,5.55-2.6,6.8-2.43-.76-1.22-2.79-1.25-4.19-.13-7-.06-14-.06-21,0,5.39,0,10.78,0,16.17,0,4-.29,7.95,1,11.81,1.82,5.44,0,10.89,0,16.34,0,11.81-.2,23.62.09,35.42.14,5.32-1,9.74-5.22,13.11a4.93,4.93,0,0,0-1.18,2.16c-1.69,2.12-4,2.69-6.6,2.89-2.13.16-4.36,0-6.09,1.67-2.67,2.74-1.79,6.22-2,9.48-.48,5.2,1.14,10.74-2.57,15.37-.57.71-.26,1.62-.22,2.12,1.67,18.52-.36,36.93-1.6,55.34-1.8,3.87-4.26,2.58-6.25.45-7.81-8.35-17.48-14.35-26.51-21.15a16.5,16.5,0,0,0-1.74-1c-.49-.24-.95-.49-1.41-.77-3.67-.91-5.3-3.23-5.89-7-3.21-20.49-6-41.05-10.62-61.29-1.91-8.41-4.37-16.69-6.14-25.12-3-5.72-4.31-12-6-18.1a2.31,2.31,0,0,1-3,1.92,2.63,2.63,0,0,1-1.82-2.71c-.11-11.07-5.33-20.56-9.67-30.23-8.58-19.13-19.76-36.84-34.28-51.9-21.1-21.9-46-37.19-77.3-39.95-4.82-.43-9.7-.54-14.49-1.49-.65-.13.39-.8.14-.18-.1.22,0,.34.25.4,11.52,2.63,21.41,8.64,30.91,15.29,22.77,15.93,38.63,37.86,52.42,61.47,17.58,30.1,28.12,62.85,35.91,96.59.8,3.44,1.83,6.79,2.68,10.2a60.25,60.25,0,0,1-12.19,18.12c-7.57,7.82-8.42,16.84-7.46,26.76,4,41.49,10.64,82.54,20.87,123,1.91,7.55,4.83,14.85,5.79,22.65.07.56.69,1.12,1.17,1.59,2.59,7.68,4.82,15.48,7.09,23.27,2.88,9.9,6.55,19.57,8.8,29.66.63,1.9-.49,3.14-1.63,4.39a25.33,25.33,0,0,1-6.49,5.41c-13.59,7.54-28,12.23-43.72,12a17.27,17.27,0,0,1-11.71-4.7c-4.8-4.27-8-9.72-11.59-14.93-14.67-21.42-28.11-43.6-41.23-66q-19.31-32.92-37.77-66.3c-6.6-11.95-12.35-24.31-18.48-36.49-.9-1.8-1.37-3.6-3.86-3.39-2-.56-2.08-2.4-2.62-3.92-2-5.7-4.65-11-8.94-15.42-6.21-6.45-13.38-8.24-21.85-5.57-14,4.43-26.1,12.42-37.93,20.83a309.31,309.31,0,0,0-37.37,31.51c-26.9,26.4-50.07,55.7-66.27,90-6.7,14.22-11.55,29.09-13.15,44.84a58.33,58.33,0,0,0,2.87,24.12c5.42,16.66,14.77,24.31,36.49,23,28-1.64,52-13,72.67-31.8,1.19-1.09,2.27-2.56,4.26-2.1,5.14,4.35,10.81,8,16.13,12.14,9.83,6,17.94,14.18,26.7,21.52q13.74,11.5,27.36,23.16a18.43,18.43,0,0,0,5.48,3.4c1.53.57,2.68,1.32,2.61,3.16a2.5,2.5,0,0,1-.78,1.44,468,468,0,0,0-59.48,39.45c-36.84,28.66-72.32,58.87-104.37,92.91-14.28,15.16-27,31.7-40.32,47.66-5.66,6.76-11.59,13.38-19.5,17.69-6.75,3.68-9.06,2.29-9.29-5.29-.09-3,0-6,0-9V737.52c0-1.66,0-3.33,0-5-.23-7.06-2-8.92-9-9-9.32-.15-18.65-.21-28,0a84,84,0,0,1-23.7-3c-11.26-3-22.51-6.09-33.6-9.69-6.17-2-6.66-2.77-6.67-9.31q-.09-52,0-103.93c0-7.48.66-8.07,8.47-8.09,25.65-.07,51.3,0,76.95,0,1.83,0,3.67,0,5.5-.06,5.83-.35,7.9-2.15,7.92-8,0-11.82,1.22-23.59,1.2-35.42q-.22-139.92-.12-279.82c0-3.72.92-7.82-2.88-10.55a80.1,80.1,0,0,0-18.47-3.49c-16.42-1.14-33-1.47-49.38.27-5.82.61-11.47,1.2-17.35.31a45.23,45.23,0,0,0-13.43.32c-8.1,1.24-16.27.15-24.41.5-15.63.68-31.05-3.37-46.74-2.11-3.61.29-6.89.64-9.57,3.25-.4.47-.83.91-1.21,1.39a6.93,6.93,0,0,0-1.43,3.7c-.09,8.15-2.19,16.07-2.17,24.31.22,98.8,0,197.61.15,296.42,0,3.46.46,7-.55,10.4-1.9,1.82-4.33,1.5-6.6,1.51q-44.35.12-88.71,0C5,592.44,2.08,592.58.09,590Z"/><path class="cls-1" d="M.09,590l102-.13c1-1.89.46-3.93.46-5.89q0-163.52,0-327c0-2-.49-4,.46-5.89a1.67,1.67,0,0,1,.91-.14c.5,0,1,.11,1.5.11,36.78.05,73.57,1.14,110.34.41,17.31-.34,34.61-.24,51.91-.31,8.13,0,16.26,1.14,24.38-.16,1.38,1.77.78,3.85.78,5.78q-.17,164.67-.3,329.33c0,5.1-1.52,6.45-6.5,6.39-29-.32-58-.21-86.95-.52-4.85-.06-6.61,1-6.57,6.24q.44,51.47.15,102.94c0,4.48,1.36,6.53,5.69,7.57,15.21,3.63,29.79,9.81,45.44,11.59,13.27,1.5,26.63.38,40,.55,10.41.13,10.39,0,10.4,10.21q0,55.72.12,111.44c0,1.9-.95,4.48,1.1,5.53s3.69-1,5.32-2c8.19-5.35,14.78-12.44,20.68-20.12,45.95-59.72,102.26-108.39,162.72-152.62a312.58,312.58,0,0,1,32.93-20.81c2.15-1.19,4.23-2.76,6.93-2.52,2.85-.14,5,1.09,7,3.07,19.19,18.73,37.47,38.32,55.44,58.21,30.39,33.62,58.29,69.3,86.17,105,13.3,17,29,31.6,45.51,45.42,5,4.17,9.76,8.57,15,12.48.91.69,1.87,1.69,3.11.93s.79-2,.73-3.19c-1-21.3-.25-42.62-.4-63.93,0-1.93-.24-4.23,2-5.22,2.62-1.14,4,1,5.41,2.55A195.34,195.34,0,0,0,767,828c5,4.08,11.06,6.51,16.08,10.51,2.11,1.69,4.49-.93,6.5.69,1.58.89,2.46,2.72,4.33,3.23,4.4,1.54,8.41,3.93,12.7,5.73,17.57,7.39,34.69,5.41,51.6-2.24,2.06-.93,4-2.52,6.52-1.84a163.7,163.7,0,0,1,15.35,16,36.41,36.41,0,0,0,12.47,13.72c11.42,11.07,24.85,19.37,38,28,2.19,1.44,6.11,2.36,5,5.83-1,3.13-4.67,1.64-7.12,1.68-8.63.14-17.27-.09-25.9.06-9.92.16-19.87-.81-29.74,1.42a30.54,30.54,0,0,1-11.9.06,90.85,90.85,0,0,0-13-.51q-205.06,0-410.13,0c-4.25,0-8.72.75-12.41-2.36-.84-1.41-1.81-2.79-.68-4.55,7.75-12.11,6.27-24.51,1.12-37-2.44-4.78-7.28-7.36-10.54-11.39-10-6.71-20.51-9.86-32.31-5.21-8.31,1-15.52,4.8-22.45,9.15-14.53,9.13-27.7,20.05-40.62,31.28-2.33,2.52-4.9,4.8-7.27,7.28-2.85,2.54-5.87,4.93-7.94,8.23-1.44,1-3.09,1.75-4.44,2.92a4.24,4.24,0,0,1-2.4.68c-3.94,1.67-7.89,0-11.83,0-8.82,0-17.64.06-26.45,0-4-4.75-9.65-3.74-14.84-4.91-4.28-1-8.13-4.32-11.77-7.18-2.76-2.16-5.36-3.77-9.08-2.63a5.18,5.18,0,0,1-6.18-2.15c-2-3.61-5.34-4.52-8.72-4.93-3.63-.44-7.53-.74-10.73-1.84-4.31-1.48-9.45-1.76-12.85-5.56,0,0,.38-.46-.26-.21-4.18,1.64-6.57.92-10.27-3.19-1.87-2.07-3.19-3.94-6.32-1.25-1.7,1.45-3.91,0-6.28-1-3.54-1.59-6.2-5.64-11.78-4.38-3.32.75-7.12-.06-10.47,2.16-1,.65-2.64.21-3.67-.84-3.17-3.25-7.16-2.93-11.18-2.7-3.53.21-7.29,1.46-9.94-2.42-1-1.51-2.3-.26-3.49.33-3.16,1.58-9.06-.38-11.59-4-2.27-3.23-1.45-6.2,1.21-8.93a26.62,26.62,0,0,0,3.9-5.81c-3.52,0-4.81,2.51-6.84,3.57-1.43.74-2.7,1.41-4.11.23-1.57-1.31-1.32-2.8-.38-4.45,2.4-4.24,3.68-8.6.79-13.17-1.33-2.12-2.43-3.86-5.78-3.55-3.78.35-5.09-3.47-6.09-6.32-1.38-3.91-2.92-5.14-7.57-4.7s-10.22-.3-14.33-4.08c-1.65-1.52-3.37-2.44-5.83-1.09-3,1.68-6.33-.06-9.5-.15-1.62-.05-2.71-1.91-2.22-3.85.54-2.15.93-4.43,2.89-5.4-6.43,2.66-13.64,3.71-20.68,5.42-.46,0-.92,0-1.39,0-1.35,0-3.34-.15-3-1.69.86-3.73-4.05-4.67-2.9-7.47,1.11,1.38,1.12,3.27-1.4,4.26a3.69,3.69,0,0,0-2.31,2.25c-3.47,4-8.69,5.48-12.74,8.67-.49.39-1.24-.12-1.79-.5Z"/><path class="cls-3" d="M1023.91,404V820.93c-1.56,2.09-3.81,2.45-6.18,2.42-19.77-.24-39.53.53-59.32-.62-17.25-1-34.57-.18-51.85-.31-3,0-6,.22-8.93-.5-3.74-1.9-2.16-4.2-.43-6.44a72,72,0,0,0,14.44-34c3.22-22.19-3-41.4-18.11-57.82-1.91-2.07-4-4-5.89-6.09-1.17-1.35-2.72-2.59-2-4.77,1-3.6.79-7.28.79-10.93q0-183,0-366c0-1.83,0-3.66.05-5.49.06-1.37.27-3.07,1.74-3.24,3.46-.4,6.38-2.93,10-2.44,4.92.2,7.32,3.55,8.87,7.57a86.08,86.08,0,0,1,4.82,19.22c.41,3,.24,6.49,3.2,8.64,2.7-.11,1.51-2.08,1.65-3.4.21-1.92.12-4.06,3.05-3.88,2.49.75,2.22,3,2.59,4.85,1,5,2.53,6.49,7.56,6.79,5.6.32,11.21.06,16.82.13,2.65,0,5.29,0,7.49,1.87.81,3.07-.88,3.09-3.33,3.3-7.4.63-14.77.12-22.15.26-1.9,0-4.46-.75-4.93,2.39-.28,8.42,2.29,16.31,4.6,24.21.84,2.85,3.6,3.72,6.42,3.84,4.13.19,8.27.14,12.41,0s6-2.35,6.06-6.3c.14-5.47-.06-10.93.12-16.4.08-2.25-.12-4.79,3-5.46,2.4.77,1.9,2.82,1.93,4.55.09,5.29-.07,10.58.1,15.87.07,2.29,0,4.7,2.18,6.25,4.52,4.45,10.61,3.29,15.87,3.56A50.19,50.19,0,0,0,990.19,401a7.78,7.78,0,0,1,2.29-.42c2.1.12,4,1.39,6.24.86,6.33.19,12.66,0,19,.12C1020.11,401.58,1022.36,401.88,1023.91,404Z"/><path class="cls-1" d="M953.91,367c-9.81,0-19.61-.16-29.41,0-3.7.08-5.1-1.13-4.93-4.82a79.54,79.54,0,0,0-.49-8.42c-2.36-.55-2.46-2.53-2.48-4.31-.14-11-1-22.14.5-33.09.71-5-1.84-9.41-1.1-14.3,1.2-7.9-.35-15.85-.07-23.77a37.82,37.82,0,0,0,.49-7.95c0-17.28-.55-34.59.13-51.84,1.29-33.23.66-66.45.86-99.67a41.67,41.67,0,0,0-.32-8.43c0-5.83-.93-11.69.51-17.5,2.74-5.1,2.53-10.85,1.51-16-1.34-6.76-.9-13.42-1-20.13,0-13.41,1.72-26.77,1.36-40.2-.11-4.17.85-8.23,1.19-12.35a5.77,5.77,0,0,1,2.3-4.18h33c2.21,1.67,2.39,4.09,2.44,6.57.11,6.22,0,12.45,0,18.67C957.13,45.55,955,65.82,956.63,86c1.45,17.5,1,35,.64,52.38-1.59,73.37-.45,146.73-.93,220.1C956.33,361.43,957.55,365,953.91,367Z"/><path class="cls-4" d="M960.92.09h30c1.41,1.13,1.72,2.51,1.71,4.36q-.64,112.88,0,225.74c.17,27.34.35,54.71.95,82.06.29,12.91-.28,25.8-.09,38.69,1.51,5.12-.45,10.17-.34,15.25.06,2.58-1.75,3-3.55,3.06-9.64.44-19.29.46-28.94,0-2.61-.12-3.75-1.77-4-4.24a59.75,59.75,0,0,1-.21-6c0-54.09-.63-108.19.26-162.26.44-26.79.33-53.57.72-80.34,0-2.65,1-5.27.29-7.93.49-15.67-.15-31.37.4-47.06.62-17.55.08-35.1.36-52.65C958.5,5.71,958,2.4,960.92.09Z"/><path class="cls-5" d="M896.88,819.83c1.49,0,3,.15,4.48.16l122.55.94v88c-22.45,0-44.89.06-67.33,0q-43.65-.08-87.28-.29c-2.48,0-5-.35-7.43-.54l64.79-.07a25.28,25.28,0,0,0,6.74-.65c-15-10.22-30.39-19.87-43.52-32.44a19.5,19.5,0,0,1-2.45-10.39c.28-11.37-.57-22.75.51-34.1a6.92,6.92,0,0,0-.61-2.87c.33-4.12,4.46-5,6.55-7.57A2.25,2.25,0,0,1,896.88,819.83Z"/><path class="cls-4" d="M994.91.09c8.67,0,17.33.11,26-.07,2.51,0,3.08.57,3.07,3.07-.11,24.66-.06,49.33-.06,74V368c-1.86,2.35-4.49,1.84-6.95,1.85-5.81,0-11.61.44-17.44-.22-1.79-.2-3.3-.23-4.59-1.5-.95-1.9-.48-3.93-.5-5.9-.39-35.37-.54-70.75-1.21-106.11-1.57-82.21-.27-164.42-.77-246.62C992.43,6.22,991.9,2.66,994.91.09Z"/><path class="cls-4" d="M779.14,253.4c.31-15.82.58-31.63,1-47.45Q782.51,103,785,.09h32a8.21,8.21,0,0,1,1.4,4.71c-.06,10.14.68,20.29-.5,30.4a107.93,107.93,0,0,0-.4,12.46c0,20.45.75,40.94-.19,61.35-1.44,30.93-.31,61.84-.79,92.75a32.43,32.43,0,0,0,.38,7.43c.95,8.51-2,16.92-.89,25.43-.1,7.17-.42,14.26-1.05,21.43a239.87,239.87,0,0,0,0,40.91,152.24,152.24,0,0,1,.84,16.53,8,8,0,0,1-1.82,5.53c-10.84.86-21.67,1.92-32.55.49-2-.25-3.66-.58-3.5-3.14,1.24-20.05.23-40.13.57-60.2C778.47,255.21,778.22,254.15,779.14,253.4Z"/><path class="cls-4" d="M914.92,362c-.51,1.19.23,2.67-1.06,4-1.56-1.12-1.11-2.95-1.49-4.38-2.41-9.09-4.67-18.21-7.12-27.28-.81-3-1.78-6.11-5.4-7.08-4.22.92-8.61-1.6-12.77.62a2.21,2.21,0,0,1-1.56-.08c-1-.67-1-1.74-1.13-2.78-.08-.77-.18-1.53-.3-2.3-1.14-2.11-2.09-4.27-1.66-6.79q0-80,0-159.89c0-9-2.22-18-1.33-27.09.61-32.58,1.94-65.16,1.36-97.75-.16-8.67,1.43-17.24,1.13-25.91A5.9,5.9,0,0,1,885.93.09h32a5,5,0,0,1,1.86,4.35c-.66,17.29-1.61,34.57-1.64,51.87-.39,19.27-2.18,38.52-.79,57.83.86,12-.89,24-.91,35.93-.05,37.81.14,75.62-.09,113.43-.1,14.95-.55,29.9-.71,44.85,0,2.48-.34,5,.67,7.36.3,10.74.05,21.47.09,32.21,0,3.21.21,6.41.3,9.62C916.76,359.4,916.71,361,914.92,362Z"/><path class="cls-6" d="M850.94.09h31a6.54,6.54,0,0,1,1,4.75,147.67,147.67,0,0,0-.43,18c.46,33.8-1.34,67.57-1.24,101.38,0,13.29.36,26.65-.57,40-.14,2,.17,3.59-2.11,4.25-2-1.05-1-2.94-1-4.42-.08-12.66-.05-25.32-.05-38,0,11.13-.38,22.28.07,33.39,2,50.59.39,101.19.92,151.79.08,7.34,0,7.34-7.52,7.35-4.17,0-8.33,0-12.5,0-2.3,0-3.73-.85-4.07-3.37-.88-6.43-2.69-12.79-3.18-19.15-.43-5.56-1.77-11-1.75-16.61q.18-45-.06-90c0-4.74,3-8.65,2.06-13.58-.61-3-1.21-6.48-.28-9.6.82-2.78-1.89-3.41-2.43-5.27.16-11.41-2.56-22.67-1.61-34.1a45.72,45.72,0,0,0,.35-6c-.26-37.22,1.73-74.42,1.05-111.64C848.42,6,847.86,2.54,850.94.09Z"/><path class="cls-4" d="M820.94.09h25c2.24,1.71,2.46,4.18,2.43,6.69-.23,16,.87,31.94-.74,47.88a71.71,71.71,0,0,0-.19,7.48c-.09,78.6-1.09,157.19-.3,235.79.07,6.65.4,13.32.16,20-1.2,1.9-3.1,2.39-5.16,2.46-6.65.25-13.29.12-19.94.07-4.22,0-6-2.41-6.05-6.2-.12-5.87-1-11.79.9-17.57a17.52,17.52,0,0,0,.39-5.45c0-11.47-.35-23,.1-34.4.43-11-2.27-21.7-1.57-32.64,2-8,.3-16.1.48-24.13,1-44.79.56-89.58,1.27-134.36.31-19.14.34-38.28.76-57.42C818.54,5.34,818.16,2.23,820.94.09Z"/><path class="cls-7" d="M996.23,367c9.18,1.65,18.47.2,27.68,1.07v4c-2.23,3-5.54,2.26-8.59,2.51-4.81.4-9.94-1.29-14.29,2.12-2.57,2.94-1.81,6.58-2,10-.32,4.95,1,9.93-.22,14.87a5.76,5.76,0,0,1-1.92,1.59c-1.63.88-2.74,0-3.78-1.12-3-.33-2.48-2.72-2.58-4.56-.26-5,.07-9.93-.17-14.9-.29-5.79-2.15-7.69-7.92-7.92q-7.2-.3-14.4,0a7.79,7.79,0,0,0-5,1.83c-6.2,6.85-3.59,14.64-2.32,22.25.18,1.07,1,2.06.68,3.28a2.56,2.56,0,0,1-1,1.35c-1.11.15-2.26.54-3.19-.48q-.12-12.06-.23-24.11c0-2,0-3.94-1-5.76a14.32,14.32,0,0,1-6.69,1.5c-7.26,0-14.53.09-21.79,0-2.4,0-5,.16-6.53-2.41-1.37-3.5.83-4,3.46-4,7.57,0,15.14,0,22.72,0,2.29,0,4.63.17,6.75-1,0-45.14-.09-90.28.12-135.42q.48-100.69,1.33-201.38c0-1.83.24-3.65.36-5.47,3.57,1.19,2.55,4.32,2.61,6.75.38,13.89-.33,27.77-.44,41.65-.08,10.27-.11,20.54.11,30.81,0,1.7.18,3.22,1.81,4.16-.16,29.62-.38,59.23-.46,88.85-.15,55.08-.17,110.16-.4,165.24,0,4,1.19,5.16,5.07,5.05,8-.22,16-.06,24,.07,2.67,0,4.06-.69,3.81-3.66-.36-4.2,1.1-8.4.18-12.62,1.64-3.84.88-7.77.55-11.71-.11-1.29-.94-3.46,1.26-3.62,2.35-.18,1.58,2.05,1.6,3.34.07,7.78,0,15.56.07,23.34C995.47,363.89,994.62,365.66,996.23,367Z"/><path class="cls-8" d="M996.23,367c-1.91-2.85-1.27-6.08-1.3-9.19-.08-6.66,0-13.32-.68-20-1.36,4.39,1.44,9.27-2.28,13.22q-.54-41.19-1.1-82.36Q989,142.1,990.24,15.53c0-5.15.44-10.29.67-15.44h4q-.09,49.48-.19,99c-.26,86.13,1.07,172.26,1.57,258.4C996.3,360.62,996.25,363.79,996.23,367Z"/><path class="cls-8" d="M878.12,168.45c.21-9,.5-17.94.61-26.92q.81-66.39,1.55-132.77c0-3-.26-6,1.65-8.67h4q-.93,60.52-1.86,121c0,2.65-.15,5.31-.23,8-.67,1.25-.4,2.61-.4,3.93q0,91,0,182a10.65,10.65,0,0,0,.21,3c.9,1.74,3.62,2.4,3,5.05-3.77,2.54-10,2.33-14.13-1.26-.83-.72-1.36-1.43-1-2.53.31-.94,1.14-1.06,2-1.16,1.82-.21,4.3.68,4.42-2.53-.6-47.28-.47-94.54-.43-141.81C877.47,172,876.76,170.06,878.12,168.45Z"/><path class="cls-9" d="M845,317c-.08-4.15-.23-8.31-.23-12.46-.07-101.49-.21-203,1.13-304.46h5l-1.11,127c-.38,12.09-.91,24.15.4,36.26.92,8.58.39,17.28,0,25.9-.56,13.14-.18,26.28-.28,39.41-.12,16-.34,32,.07,47.94.3,11.29.39,22.56.39,33.85C850.43,314.1,849.53,317,845,317Z"/><path class="cls-10" d="M820.94.09Q820,110.84,819,221.56c0,.83-.12,1.66-.19,2.49a1.69,1.69,0,0,1-1.49.45c-2.16-1.87-2.84-4.31-2.93-7.09s.54-5.61-.43-8.35c0-19-.1-37.92.12-56.88Q814.91,80.06,816,8c0-2.64-.27-5.35.93-7.86Z"/><path class="cls-11" d="M996.87,403.1l-.12-2.08c-.38-9.66-.91-19.31.28-28.95l26.88-.05v32Z"/><path class="cls-12" d="M959.81,108.08c-1.9,1.26-3.5,1.53-3.77-1.41-.15-1.65-.11-3.33-.11-5l-.21-77q.1-12.32.2-24.62h5Z"/><path class="cls-13" d="M915.87,55.54c-.08-18.51.35-37,2-55.45h5l-2.13,57c-.81,10.2-.14,20.41-.38,30.62,0,2,.35,4-.43,5.87a98.22,98.22,0,0,1-.1,16.45c-3.4.7-2.88-1.93-2.9-3.7-.05-3.79.27-7.63,0-11.38-.88-11.33-2.09-22.62-1.53-34C915.51,59.16,915.15,57.31,915.87,55.54Z"/><path class="cls-14" d="M788.67,842.06c-6.52-.78-11.76-4.51-17.1-7.79-11.07-6.79-19.66-16.37-28.26-25.9-1.06-1.18-1.65-3-4-3.16v77.35c-6.63-5.48-12.46-10.5-18.49-15.26-29.56-23.34-52.83-52.4-75.72-82A1277.15,1277.15,0,0,0,530.85,656.44c-2.25-2.22-4.57-4.36-6.86-6.54.06-.25.11-.49.16-.74-.28-2.6,1.77-3.38,3.49-4.3,25.62-13.69,52-25.57,80.23-32.88a56,56,0,0,1,19.27,4.92c4.09,1.92,5.94,7,8.52,10.85,18,26.85,33.69,55.12,49.6,83.24,14.61,25.82,30.6,50.78,46.63,75.72,1.5,2.32,3.23,4.53,3.44,7.35-1.36-5.09-.9-10.41-.82-15.68s0-10.75.57-16.18c.7-6.42,1.52-13.1-1-19.47.84-8.33.21-16.68.42-25,.37-7.79.25-15.58,1.08-23.39a46,46,0,0,0-.71-13.35,22.19,22.19,0,0,1,0-5.87c2.13-3.94,1.7-8.19,1.55-12.43-.44-12.48.78-24.93,1.23-37.38q.87-24.16,2.52-48.3c.55-8,1-15.92,1.67-23.88.4-7.13.82-14.27.74-21.42,2.73-20.61,3-41.41,4.82-62.09a54,54,0,0,0-.52-12.95,3.72,3.72,0,0,1-.06-1.48c4-11.24.66-22.85,1.72-34.24.33-3.58,0-7.34,3.36-9.87.72-17.44,1.36-34.88,2.21-52.31.37-7.62,1.18-15.22,1.78-22.83,2.41.11,2.63,2,2.46,3.6-1.15,10.84,4.29,19.73,8.77,28.73A835.66,835.66,0,0,1,814.7,483.6c10.55,32.52,18.41,65.74,25.4,99.18,7.49,35.87,14.68,71.79,19.81,108.09.42,3,.78,6-1.57,8.43-2.17,1.69-4.49.66-6.72.3a105.14,105.14,0,0,0-27.22-.7,120.51,120.51,0,0,0-25.19,9.19c-10.35,5.25-18.05,13.3-23.74,23-16.43,27.94-15.74,56.76-3,85.78,3.52,8,9.8,14.21,15.36,20.85C788.87,838.91,791.16,840.1,788.67,842.06Z"/><path class="cls-15" d="M608,614.83c-26.1,6.29-50.32,17.23-74,29.61-3.24,1.7-6.61,3.15-9.92,4.72a12.88,12.88,0,0,1-7.6-3.36c-18.27-15.17-35.86-31.15-54.52-45.86-3.38-7.45-4-14.81.65-22a19.67,19.67,0,0,0,2.07-4.46c2-3.52,4.13-6.69,8.37-8.06,2.51-.81,4-3.24,5.68-5.33,7.48-9.33,12.93-19.89,18.72-30.25,4.44-7.94,6.92-16.8,11.39-24.73,1.34-2.39-.15-4.74.16-7.09,2.18-3,3.68-6.33,3.46-10.17-.15-2.72,1.78-4.6,2.58-6.92,1.37-4,1.67-8.14,2.11-12.28,4.41-4.17,6.75-16.49,4.17-22,1.22-4.51-.29-9-.12-13.48,0-1.29-.86-2-1.74-2.67-2-1.58-1.73-3.74-1.55-5.88a38.58,38.58,0,0,0-.19-9.36c-.25-2.27-.48-4.68,2.07-6.06,2.95-2,3.47,1,4.22,2.36,2.45,4.34,4.48,8.93,6.78,13.36,28.21,54.45,58.66,107.57,92.9,158.48.19.28.39.54.57.83,10.08,16.06,14.88,18.69,35.91,13.88,8-1.82,15.81-4.12,23-8.21,4-2.32,8.12-4.65,10.59-8.87a38.87,38.87,0,0,1,5.34-8.66c2.27-2,1.77-6.07,5.4-7,2.46.75,4.87.17,7.27-.35,1.75.19,3.23.14,3.62-2.17.34-2.12.56-4.25.88-6.35.59-3.82.72-7.93,4.54-10.44,2.07-1.36,1.31-3.52,1.14-5.44-.15-1.6-1.59-3-.93-4.74.6-4.11.57-8.27,1.13-12.38.72-5.34,2.86-7.14,8-6.8,10.92.72,16,6.15,14.8,15.65A138.14,138.14,0,0,1,743.87,553a16.77,16.77,0,0,0-5.18,10.51c-.9,6.43-2,12.72-5.31,18.53-2.24,4-2.37,8.69-2.59,13.13-.43,8.6-.9,17.21.73,25.84.82,4.29.57,8.87.66,13.27.19,9.31,1.25,18.56,1.33,27.87a121.62,121.62,0,0,0,3.39,29.41c2.14,8.41,1,17.8.14,26.75q-.06,12.83-.13,25.66a4.09,4.09,0,0,0-1.11,3.92,25.7,25.7,0,0,1,.14,7.38c-.36,3.62,1.11,8.1-3.83,10-5.51,2.11-11.52,1-15-3.53a168,168,0,0,1-10.41-15.2c-7.79-13-14.74-26.42-22.15-39.6-10.1-17.95-21.38-35.28-30.51-53.66-5.34-10.77-12.74-19.66-19.26-29.35-5.59-8.29-13.7-10.92-23.34-9.5C610.32,614.57,609.11,614.19,608,614.83Z"/><path class="cls-4" d="M519.86,409.18q.54,7.63,1.07,15.29c-1.28,3.31.54,6.45.54,9.7,0,11.79-3.57,23-6,34.34A237.3,237.3,0,0,1,459,579.25c-2.34,2.61-4.44,5.41-7.09,7.72-1.42,1.23-2.79,2.5-4.83,1.2-18.78,17-39.89,29.38-65.31,33.27-8.91,1.36-17.87,2.28-26.82.34-16.86-3.66-22.84-16.49-25.79-31.42s0-29.1,4.54-43.23c8.24-25.73,22.14-48.38,38.34-69.66,24-31.51,52.2-58.64,85.22-80.64a123.78,123.78,0,0,1,24.37-12.56c14.08-5.39,23.9-2,32,10.79C516.49,399.46,518,404.41,519.86,409.18Z"/><path class="cls-4" d="M857.76,698.15c-.65-13.69-3.39-27.09-5.8-40.52-8.38-46.73-17.49-93.32-29.7-139.24-13.16-49.45-32-96.75-54.42-142.65-1-1.95-1.88-3.9-2.88-5.83-5.53-10.66-11.06-21.31-9.14-34l.16-11.49c3.5-2,7.29-.48,10.94-.87,2.54-.27,4.93.09,7.31-1.9s5.73-.35,8.66-.56c1.58-.11,3.24.32,4.87,0,14.65.29,29.3.48,44,.39,6.5,0,13,.32,19.49-.08,11.17-.68,22.13,1.24,33.17,2.13,1.8,3.22,2.08,6.74,2.08,10.35q0,181.51,0,363.05c0,7.29,0,7.29-6.78,9.26a5.93,5.93,0,0,0-1.31.71C873.68,708.69,858.93,702.37,857.76,698.15Z"/><path class="cls-4" d="M470.9,218a84.75,84.75,0,0,1-10.66,37.68c-16.19,29.72-40.93,49-72.92,59.34-9.36,3-18.77,5.85-28.74,6-15.44.28-25-8.35-26.52-23.82-.82-8.54,1.05-16.57,4.53-24.27,8.35-18.42,21.67-33.09,36.06-46.83A300.42,300.42,0,0,1,436.49,180c9.23-5,13.59-4.48,21.42,2.93C467.82,192.33,470.53,204.51,470.9,218Z"/><path class="cls-16" d="M751.83,411.07c-1.85,15.26.08,30.67-1.89,45.92-2.32,1.21-3-.37-3.35-2.11-.76-3.65-2.51-6.23-6.17-7.74-3.36-1.39-3.27-2.54-.19-8.26-1.88,2.77-2.65,5.21-2,8.18.42,2.05.54,4.53-1.85,5.67s-4.51.11-6.22-1.72a57.89,57.89,0,0,0-12.26-9.78,10.25,10.25,0,0,1-.86-2.36c-.13-1.5-.31-3,.88-4.23,2-2.06,1.66-4.53,1.2-7,2.16-4.21.88-8.18-1-12.09-.76-3.95-4.45-3.78-7.1-5.08-4-9.38-5.62-19.46-8.59-29.15-1.75-5.69-3.55-11.43-3.68-16.85-.18-1.29-.88-.47-.25-.68.18-.06.3.06.32.36a185.66,185.66,0,0,1,0,32.67c-1,9.58.36,19.29-1.31,28.86-.28,1.62,0,3.34-1.06,4.79-3,1.63-4.33.47-4.31-2.76,0-3.86-.69-7.69-.63-11.22-.21,2.22.38,4.71.48,7.25a48.7,48.7,0,0,1-1.17,12.47c-2,8-.89,16.22-1.39,24.33-.77,12.27,2,24.35,1.45,36.58-.5,3.91-.12,7.91-1.35,11.72-3.88,3.81-6.27,7.85-5.71,13.83.43,4.61-3.22,7.2-6.61,6.25-12.39-40.24-20.37-81.37-25.27-123.14-1.43-12.24-2.74-24.47-3.39-36.79a12.12,12.12,0,0,1,2.55-8.77c6.35-8.12,12.83-16.15,17.92-25.16.18-3.35-.41-6.92,2.8-9.35,3.16.56,5.35-.86,7.11-3.37a39.16,39.16,0,0,0,6.09-13,16.88,16.88,0,0,1,2-5.61c3.83-2.51,5.65-6.18,6.12-10.64,1.27-1.1,2.53-.84,3.78,0,6.56,18,9.71,36.88,13,55.68q2.58,14.72,4.49,29.54c.52,4,2,6.9,5.61,8.67-.75.78-.94,1.93-1.72,2.71.78-.78,1-1.91,1.7-2.72,8.87,3.94,16.37,9.88,23.55,16.26C746.38,405.75,749.07,408.45,751.83,411.07Z"/><path class="cls-4" d="M673.12,327.06l-4.14,8c-2.94-7.06-4.06-14.63-6-22-9.46-36.33-22.94-70.85-44.46-101.95-18.57-26.83-41.58-47.93-73-58.62-1-.36-2.33-.42-3.33-2.17,9.34-.94,18.26-.08,27.19,1.18,33.55,4.77,59.13,23,80.29,48.17,16.55,19.71,28.22,42.27,36.79,66.49,1.3,3.66.3,7.26.65,10.87,2.17,1,1.93,2.78,1.65,4.65-2.09,14.24-6.31,27.88-11.57,41.23A7.22,7.22,0,0,1,673.12,327.06Z"/><path class="cls-17" d="M447.08,588.17c39.17-38.38,60.81-85.58,69.92-139.07,1.4-8.19,2.62-16.42,3.93-24.63,1,4.15,1.74,8.36,3,12.44a16.82,16.82,0,0,1,.09,10.17c-.88,7.7-3.81,15-4,22.85-.06,9.19-5,17.24-6.16,26.18-.14,1-1.19,1.93-1.81,2.89-2.25,3.79-3.5,8-5,12.06-2.1,5.59-4.86,10.95-7.5,16.3a177.58,177.58,0,0,1-28.42,42.13c-1.41,1.52-2.94,3.1-3.07,5.41-4.86,5.71-7.27,12-5.5,19.68.39,1.66-.28,3.57-.46,5.36C456.75,596.39,450.56,594,447.08,588.17Z"/><path class="cls-18" d="M677.17,528.92c3.73-2.54,4.31-6.15,4-10.37-.53-6.58,1.23-8.81,6.81-9.56,2.41-.86,2.28-3,2.36-4.92.92-22.39,1.91-44.78.52-67.18-.1-1.66-.1-3.12,1.77-3.49s2.5,1.07,2.78,2.68c1.37,7.87,2.52,15.76,1.74,23.78a132.17,132.17,0,0,0,0,27.91c.56,8,0,16,.37,23.92.82,17.55,2.38,35.05,3.52,52.58.22,3.26-1.63,6.43-.05,9.63a11.11,11.11,0,0,1-7.12,7.11c-4.38-9.89-6.81-20.42-10.13-30.66C681.38,543.25,679.33,536.06,677.17,528.92Z"/><path class="cls-19" d="M673.12,327.06c6.13-16.25,11.35-32.76,14-50,.51-2,1-4,1.76-6.88,4,7.71,6,15.3,8,22.91l-1.74,2c-2.86,1.27-3.25,4.14-4,6.6a10.66,10.66,0,0,1-2,4.29c-2.49,6.46-4.17,13.32-8.73,18.79C678.56,326.91,676.72,330,673.12,327.06Z"/><path class="cls-20" d="M103.06,251q.07,47,.15,94,.08,119.68.08,239.38c0,1.84.92,4-1.2,5.48q0-166,0-332C102.08,255.56,102,253.22,103.06,251Z"/><path class="cls-21" d="M292.1,251c-2.3,1.26-4.83,1.09-7.31,1.09H111.27c-2.49,0-5,.16-7.3-1.15,1.65-.14,3.3-.41,5-.41q89.87,0,179.74.1A30.87,30.87,0,0,1,292.1,251Z"/><path class="cls-22" d="M779.14,253.4q-.06,29.1-.12,58.2c0,6.47,0,6.49,6.54,6.48,9.13,0,18.25-.08,27.37-.12.72,3.05-1.61,3-3.46,3.36-3.06.59-6.14-.71-9.2.07-6.27-.37-12.44-1-18.61,1.76-2.77,1.26-6.47.86-9.71-.12.46-1.23.57-2.91,1.45-3.61,4.89-3.89,4.54-9.27,4.55-14.59V219.69h1.19Z"/><path class="cls-23" d="M772,323c3.39-.65,7.82,2,9.85-3.28.24-.62,2.44-.66,3.74-.68,4.49-.07,9,0,13.49,0,1.38.87,4.15.64,3.45,3.22-.55,2.08-2.78,1.08-4.3,1.22-3.39.32-6.84-.51-10.21.48l-32,.45C761.11,321.78,766.63,323.56,772,323Z"/><path class="cls-15" d="M570,838.92c-15.13-8.09-23.89-28.43-19.36-45,.21-.78.34-1.64,1.31-1.9,3.47.69,2.35,3.57,2.46,5.62.41,7.57,1.66,12.28,5.2,17.79,1.27-3.08-1.17-5.83-.28-8.61,3.11-4.32,3.73-9.53,3.87-14.43A54.57,54.57,0,0,1,568,771.09c8.21-4.75,16.89-5.39,25.92-3,.95,2.2,2.73,3.71,4.46,5.25,12,10.62,15.48,24,13.61,39.51-.72,5.93-3.17,11.15-5.27,16.42-2.5,6.3-7.54,10.41-15.07,10.16-4.15-.14-8.34.28-12.36-1C576.11,837.46,573.11,838.87,570,838.92Z"/><path class="cls-16" d="M383,890.9c-3.22-2.93-3.33-6.62-2.52-10.49A30.52,30.52,0,0,1,392,861.93c1.43-5.28,6.15-5.67,10.27-6.94,9.07-2.34,18.18,3.41,19.48,11.4,1-3.31,1-3.31,5.18-1.44a36.05,36.05,0,0,1-1.06,40.94c-8.55,9.38-19.11,14.51-31.85,15-1.76.31-3-.37-3.24-2.15-1.16-9.08-5-17.35-7.81-25.92A2.73,2.73,0,0,1,383,890.9Z"/><path class="cls-18" d="M788.67,842.06c-1.33-1.46-2.58-3-4-4.38-27.59-26.08-29.7-75-14.63-102.41C781.7,714,799.22,701.33,823,697c2.15.48,4.22.89,4.16,3.89,0,2.59-1.46,3.49-3.65,4.53-8.78,4.15-17.94,7.36-26.81,11.26-3.27-.24-5.8.55-6.52,4.29-.36,1.87-1.82,3-3.18,4.25-3.37,3-5.22,7.07-7.23,11a100.31,100.31,0,0,0-3.56,64.82c2.63,9.75,6.48,18.35,13.19,25.74a28.28,28.28,0,0,1,6.45,12.72c.55,2.48-.13,4.15-2.89,4.48A8.65,8.65,0,0,1,788.67,842.06Z"/><path class="cls-24" d="M792.92,844l1-5.14c.06-2.85,1-3.93,4-2.68,28,11.55,54,8.58,77.86-10.84A118,118,0,0,0,891,811c1.43-1.66,3.32-4,5.86-1.84,2.26,1.91,1,4.2-.26,6.26-1,1.7-2.06,3.43-1.52,5.57l-5.33,5.76c-1,4.28-4.1,7.07-7.42,9.42-4.68,3.32-8.89,7.45-14.58,9.18a4,4,0,0,1-2.86.22c-4.49,2.12-9.09,4-13.73,5.75-18.11,7-35.43,4.77-52.31-3.91C796.83,846.4,794.9,845.16,792.92,844Z"/><path class="cls-25" d="M867,844.08a266.33,266.33,0,0,0,22.73-17.3l.12,48.17c-4.33-3.87-8.88-7.53-11.94-12.61-2.78-4.8-6.66-8.8-9.67-13.44C867.29,847.39,865.9,846.09,867,844.08Z"/><path class="cls-8" d="M570,838.92c.46-4.36,3.06-5,6.71-3.89a49.94,49.94,0,0,0,12.76,2c6.94.32,11.61-2.55,15.1-8.46,7.26-12.3,7.74-25.14,3.79-38.45-2-6.56-7.39-10.5-11.87-15.13-1.87-1.94-4-3.73-2.56-6.87,8.75,2.11,15.17,7.34,19.85,14.89-.41,1.68-1,3-.2,5.1,4.1,10.06,3.95,20.47,1.09,30.78-1,3.68-2.31,7.26-2.64,11.09C603,844.47,585.36,848.24,570,838.92Z"/><path class="cls-26" d="M403,857.87c-4.14,0-7.39,2.44-10.94,4.06a8.18,8.18,0,0,1-3.85-5.58,14.65,14.65,0,0,0-6.13-9.36c12.8-3.39,24.74-2.43,35,6.9.31,2.5-.63,3.59-3.3,3.6C410.18,857.5,406.54,856.93,403,857.87Z"/><path class="cls-18" d="M612,830c-2.48-2.67-2.16-5.47-1-8.74,4.37-12.56,5-25-2.42-36.81-.75-1.2-1.91-3-.52-4.06s2.17.85,3,1.7a2.86,2.86,0,0,0,2.68.94C623.43,797.34,622.75,815.57,612,830Z"/><path class="cls-13" d="M624.19,849c0,6-3.49,10.08-8.72,10.06a9.73,9.73,0,0,1-9.41-9.72,9.07,9.07,0,0,1,9.29-9.58C620.72,839.68,624.17,843.28,624.19,849Z"/><path class="cls-19" d="M568,771.09c.19.63.64,1.33.52,1.9-2.48,11.23-2.15,22.94-5.75,34a4.69,4.69,0,0,1-.9,1.18c-2.28.8-2.93-.82-3.43-2.44-1.92-6.15-4.9-12.07-4.43-18.79-1.46-2.1.55-3.31,1.38-4.63A28.88,28.88,0,0,1,568,771.09Z"/><path class="cls-27" d="M636.26,879.09a8.53,8.53,0,0,1-8.43-8.66c0-5.09,3.47-8.54,8.45-8.37,4.77.16,8.14,3.88,8.1,8.93S641.14,879.17,636.26,879.09Z"/><path class="cls-28" d="M554,786.92c3.92,6.6,5.31,14.13,7.86,21.23.39,5.1,2.2,10,1.82,15.55-3.26-.91-4.66-3.58-6.26-5.91C552.11,810,551.73,801.06,552,792Z"/><path class="cls-12" d="M403,857.87c2.43-1.21,5.08-.94,7.66-1a9.2,9.2,0,0,0,6.45-3A28.18,28.18,0,0,1,427,865c-5.8.5-2.28,4.46-2.95,7.61C419.19,864.27,415,855.14,403,857.87Z"/><path class="cls-29" d="M867,844.08c1.58,4.86,5.09,8.51,8,12.54a14.5,14.5,0,0,1,2.93,5.72c-5-5.08-9-10.91-13-16.74Z"/><path class="cls-30" d="M383,890.9c1.53,3.85,3.2,7.59,6.39,10.46,1.44,1.29,1.52,3.18,1.74,5,.59,4.91,1.06,9.85,2.88,14.52.22,7.54,3.19,14.89,1.68,22.67-1.92-.42-1.8-2.05-2.17-3.16-5-14.78-10.14-29.56-11.07-45.34C382.4,893.66,381.55,892.11,383,890.9Z"/><path class="cls-15" d="M895.09,821c-2.85-.52-4.93-1.21-2.09-4.55,1.09-1.27,2.37-2.79,2.16-4.91-2.09-.18-2.87,1.53-3.86,2.67a98.2,98.2,0,0,1-35.25,26.21c-9.72,4.25-19.91,5-30.23,4.9s-20.38-1.9-29.6-7c-.51-.28-1.51.35-2.28.56a90.13,90.13,0,0,0-10.68-15.53c-5.12-5.74-7.27-12.68-9.15-20.06-4.73-18.65-6.77-37.12-.5-55.81,1.37-4.07,2.24-8.32,3.34-12.48a58.93,58.93,0,0,1,19-21c7.26-4.2,16.29-4.46,22.86-10.23a4.12,4.12,0,0,1,2.19-1.05c5.14-.4,3.55-3,1.94-5.66a71.73,71.73,0,0,1,28.49-.06l6.31,1.19,19.09,8c4.57-1.3,7.09,1.6,9.51,4.66a12.43,12.43,0,0,1,1.48,3.23c6.82,7.71,14.65,14.48,19.25,24.08,13.12,27.43,10.16,53.22-7.15,77.76-1,1.36-2,2.63-3.06,4Z"/><path class="cls-28" d="M960.1,372.08c9.27,0,18.54.23,27.8,0,4-.11,5.06,1.28,5,5.12-.18,8.26.11,16.54.21,24.81l-.15,1.49c-.39,1.33-1.52,1-2.45,1q-13.35,0-26.7,0c-1.47,0-3,.24-3.82-1.51a2.69,2.69,0,0,0-.18-1c-1.85-6.18-.63-12.51-.79-18.76C958.91,379.55,958,375.63,960.1,372.08Z"/><path class="cls-6" d="M921,372.05c9.9.09,19.8.16,29.7.28,1.78,0,3.65-.39,5.31.67,0,8.79,0,17.57.2,26.35,0,2.82-.55,4.32-3.79,4.22-7.12-.21-14.25-.1-21.37-.21-1.58,0-3.61.34-4.17-1.8C924.3,391.85,921.23,382.23,921,372.05Z"/><path class="cls-31" d="M887.84,714,886,712.1l-.15-1c-1.13-4.14.13-8.26.13-12.4q-.09-182.23,0-364.47c0-2.43-.69-5,.92-7.27,4.35-1.24,8.66-.62,13,.27a33.05,33.05,0,0,1-3.9.74c-8,.59-8,.57-8,8.82q0,183.88,0,367.77C887.93,707.73,887.87,710.89,887.84,714Z"/><path class="cls-7" d="M914.92,362a455.19,455.19,0,0,1-.94-46c1.95-7,2.17-14.07,1.73-21.26-.26-4.33.1-8.67-.23-13-.12-1.62,0-4.52,3.33-3.69l.27,75.73-.52,9.94C916.89,364.11,916.22,362.32,914.92,362Z"/><path class="cls-32" d="M960,403c11,1.2,22,.88,33,.47a8,8,0,0,1-5.1,1.54c-8.08,0-16.15,0-24.23-.06a9.34,9.34,0,0,1-6.44-2.08Z"/><path class="cls-7" d="M918.81,278.06c-3.16,5.29-1,11.06-.93,16.47.13,6.51-.85,12.76-1.67,19.1A3,3,0,0,1,914,316c0-27.45-.23-54.9-.07-82.35q.5-84.6,1.31-169.21c0-3-.24-6,.64-8.93,0,8.63,0,17.26,0,27.17,1.06-1.92,1.54-2.77,2.43-4.37,1.1,5.29.35,9.88.63,14.41.36,5.76-.94,11.62,1,17.31-.09,23.09-.13,46.19-.28,69.29Q919.27,228.7,918.81,278.06Z"/><path class="cls-7" d="M920,93.61c0-10.38-.08-20.77,0-31.16a35.08,35.08,0,0,1,.82-5.33C920.8,69.29,921.1,81.47,920,93.61Z"/><path class="cls-27" d="M788,324c3.1-1.43,6.41-.81,9.64-1,3.64-.19,4.11-1.48,1.42-3.93,4.63-.4,9.4.91,13.9-1.11q.2-38.65.4-77.32c0-2.32.28-4.63.43-6.95,3.33.85,2.09,3.7,2.1,5.6.07,21.1.2,42.2,0,63.3a6.87,6.87,0,0,0,.09,2c-.12-25.28,0-50.49,0-75.7,0-1.68-.61-4,2-4.84h.88q.07,43.84.14,87.69c0,6.39,0,6.39,6.52,6.4,5,0,10,.05,15,0,1.58,0,3.38.53,4.6-1.11,4.3-4.33,3.91-9.8,3.9-15.29q-.06-83.13,0-166.26c0-2.81-.31-5.67.88-8.37l.24,34c1.7,1.76,1.38,4.1,1.3,6.13-1.46,37.87-.94,75.75-.83,113.62,0,9.5,1.29,19,2.13,28.49.69,7.77,1.34,8.16,9.23,8.24,5.62.06,11.25-.3,16.87.17-1.2,1.29-3,1-4.17,1.58,3.2,3.53,7.38,4.43,12,3.71l-.69,1.11q-.46.7-1,.06-42.74,0-85.46,0C795.62,324.16,791.79,324.05,788,324Z"/><path class="cls-33" d="M818,224.05c0,27.64,0,55.28-.08,82.92,0,2.06,1.29,5.73-1.85,5.8-3.31.06-2-3.64-2-5.66-.18-24.47-.22-48.95-.29-73.42l.22-24.63C815.54,214,814.43,219.64,818,224.05Z"/><path class="cls-11" d="M884.91,324.18l1-.06c0,1,.06,2.07.1,3.11.77,1.76.38,3.62.38,5.43q0,186.91,0,373.82c0,1.75.71,3.67-.66,5.28l0,.3.3,0-9.15-6a7.35,7.35,0,0,0,.92-1.75c.44-2-.94-4.68,2-5.6,2.63-.83,2.44,2.75,4.4,3.3,1.34-1.63.78-3.53.78-5.27q0-181.94.1-363.86C885,330,883.56,327.11,884.91,324.18Z"/><path class="cls-34" d="M885.73,711.76c.1-1.83.27-3.65.27-5.48q.06-188,.09-376.06c0-1,0-2-.06-3a6,6,0,0,1,.85-.25q.06,54.94.12,109.89,0,133.64-.06,267.26C886.94,706.68,887.84,709.49,885.73,711.76Z"/><path class="cls-27" d="M883.64,318c-1-2.21-.76-4.57-.76-6.88q0-87.07.06-174.13c0-2.65-.25-5.34.9-7.86q0,23.24-.07,46.46Q883.71,246.76,883.64,318Z"/><path class="cls-28" d="M878.77,317.72c-8.62.95-17.27.16-25.9.42-4,.12-3-2.76-3-4.87q-.07-41.43,0-82.85c0-23.12.16-46.24.24-69.35,1.27.57,2.63,1.44,2.5,2.84-.6,6.27,1.3,12.48-.09,18.82A72.66,72.66,0,0,0,851,197.9c-.14,26.15-.26,52.3,0,78.45.11,10.25,2.32,20.35,4.36,30.38a6.5,6.5,0,0,0,6.8,5.5c-.41,3.14-3.55,1.92-4.88,4.3a68.15,68.15,0,0,0,16.81.15c2-.19,2.61-1.9,2.7-3.69s.1-3.66.1-5.49V118.73h1.19v49.72c.07,2.66.22,5.31.21,8C878.1,223.52,878.14,270.62,878.77,317.72Z"/><path class="cls-32" d="M960.1,372.08q-.15,15-.31,29.95a4.31,4.31,0,0,1-1.74-3.4c0-7.39,0-14.78,0-22.18A6.16,6.16,0,0,1,960.1,372.08Z"/><path class="cls-3" d="M997,372.07q-.13,14.48-.28,28.95C995.62,391.36,995,381.7,997,372.07Z"/><path class="cls-27" d="M881,315.92c-1.42-3.29-1.27-6.61-.45-11.21C882.57,309.19,881.91,312.56,881,315.92Z"/><path class="cls-17" d="M720.07,441c4.14,1.11,7.42,3.62,10.43,6.53,1.15,1.1,2,3.18,3.9,2.5,2.09-.74,1.08-2.81,1.08-4.38,0-4.57,3.63-9.83,8.13-11.68.83,1.27-.2,2.2-.65,3.18-1.68,3.66-3.75,6.82,2.21,9.29,3.88,1.61,3.27,6.93,4.77,10.54,0,20.58-2,41.05-3.52,61.54-.34,4.61,0,9.3-1.37,13.82a14.82,14.82,0,0,0-16.38-13.16c-3.59.38-4.61,2.75-4.64,5.92,0,4,0,7.95-.08,11.92-1.69,2.32-.29,5.23-1.26,7.55-2.84,6.79-6.06,13.39-7.13,20.81A3.56,3.56,0,0,1,712,568c-2.29,0-4.58,0-6.71-1-2.52-1.58-1.18-3.52-.33-5.2,13-25.77,15.89-53.57,16.52-81.82.26-11.36-2.3-22.45-3.32-33.68C718,444.3,716.9,441.84,720.07,441Z"/><path class="cls-35" d="M608,614.83c8.28-4.74,16.26-1.65,23.7,1.8,5.19,2.41,6.9,8.71,10.54,13,3.11,3.66,5.59,7.84,9,11.27a7.07,7.07,0,0,1,2.16,3.27c2.13,11.37,10.35,19.57,15.27,29.48,2.85,5.75,6.88,11,9.59,16.87,1.09,2.38,2.21,4.85,4.81,6.18a2.94,2.94,0,0,1,1.43,1.91c.8,8,6.49,13.7,10,20.34,7,13.08,14,26.19,22.45,38.49a14,14,0,0,0,6.73,5.6c5.8,2.18,10.46-.62,11-6.76a41.35,41.35,0,0,0-.19-7.46c-.22-2.19-.08-4,2.31-4.86v54.44c-1.65-.57-2-2.17-2.74-3.33-25.51-38.86-49.34-78.73-72-119.33-10.61-19-22.38-37.37-34.75-55.32a9.33,9.33,0,0,0-4.66-3.49C618,615.12,613,615,608,614.83Z"/><path class="cls-18" d="M737,718.29c0-7,0-14-.15-20.94,0-1.6,1.48-4.52-2.49-4.1-.33,0-1.12-2.25-1.35-3.51A142.05,142.05,0,0,1,731,669c-.37-11.45-.05-23-1.33-34.33a286.79,286.79,0,0,1-1.6-36.57c.09-6.14.08-12.64,3.11-18,2.91-5.14,4-10.48,4.77-16a23.52,23.52,0,0,1,2-7.66c1.25-2.4,3-4.05,6-3.36-1,19.72-2.18,39.43-3,59.15-.85,19.07-1.4,38.15-2.12,57.22-.08,2.32-.39,4.62-.59,6.93-1.12-.65-.46-1.75-.71-2.83.34,2.62-.46,5.09.48,7.47C737.84,693.38,738.24,705.85,737,718.29Z"/><path class="cls-15" d="M737.88,680.92c-1.55-4-.77-8.15-.16-12.3l.39,7.66C738,677.83,738,679.37,737.88,680.92Z"/><path class="cls-4" d="M720.07,441c1.33,13.71,4.37,27.26,4,41.14-.62,22.86-2.9,45.46-10.77,67.17-2.21,6.11-5.25,11.83-8,17.68-1.54,2.23-3.45,4.24-4.33,6.9-2.45-.75-1.87-2.95-2-4.61-1.42-19.1-2.75-38.21-4.1-57.31-.85-6.22-.13-12.47-.38-18.69-.08-2,.33-4-.45-5.86a218.67,218.67,0,0,0,0-26.85,152.58,152.58,0,0,0-.06-27.12c-.14-1.43-.37-2.57.93-3.47,1.25-24.23,2.38-48.46,3.4-73q7.41,26.5,14.81,53c2.3,1,3.12,3,3.78,5.21,2.33,7.88,2.75,16,3,24.13C719.92,439.89,720,440.45,720.07,441Z"/><path class="cls-36" d="M468,574.9c-.68-2.95,1.59-4.53,3.05-6.43,9.73-12.59,19.68-25.06,26.41-39.59,3.39-7.33,7.73-14.25,9.7-22.27.7-2.84,1.7-6.08,4.87-7.61-5.88,20.65-16.32,39-28.14,56.76C479.23,562.73,472.51,567.88,468,574.9Z"/><path class="cls-27" d="M712,568c4.58-7.86,7.07-16.53,9.66-25.15.61-2,.44-4.3,2.32-5.8a21.13,21.13,0,0,1-3.27,14.2c-2.61,3.95-2.81,8.76-3.76,13.29C716.37,567.15,715.51,569.54,712,568Z"/><path class="cls-27" d="M520,469.93c-2.19-8.23,1.11-15.5,4-22.85C525,455.1,522.86,462.58,520,469.93Z"/><path class="cls-37" d="M694.88,430c0,10.21.21,20.41-.87,30.59V435.85h-1v65c0,2.33,0,4.69-1,6.86-.85,1.8-1.84,3.46-4,1.3q0-6,0-12c1.26-5.22.41-10.55.69-15.82.64-12.25.26-24.54.31-36.81,0-6,.82-11.92.48-17.9-.09-1.47.39-3-.48-4.38.07-3.65-.32-7.33.53-10.94.21-.92.21-2.23,1.47-2.3s1.52,1.11,2,2c1.07,2,.89,4.19,1,6.34C694.2,421.42,693.26,425.8,694.88,430Z"/><path class="cls-19" d="M719.85,439.33q-3.37-14.67-6.76-29.34c3.71-1.22,6,1.69,8.88,3-1.11,4.93.63,9.86-.05,14.79Z"/><path class="cls-38" d="M689,422.06a13.3,13.3,0,0,1,.85,3.35c-.08,16.44.77,32.88-.44,49.31-.37,5.12-.3,10.27-.41,15.41-.05,2.33.1,4.67-1,6.84C687.92,472,687.68,447,689,422.06Z"/><path class="cls-22" d="M689.12,305.93c1.36-4,0-9.46,6-10.88C692.85,298.5,693.12,303.4,689.12,305.93Z"/><path class="cls-39" d="M720,387a25.31,25.31,0,0,1-3.84,9.62c-.8-4.09.31-7.37,3.86-9.61Z"/><path class="cls-40" d="M721.92,427.78c-1.29-4.93-1.76-9.86.05-14.79C722.09,417.92,724.22,422.86,721.92,427.78Z"/><path class="cls-37" d="M694,487.43c1,8.15.78,16.36.83,24.55C693,503.85,694.29,495.61,694,487.43Z"/><path class="cls-41" d="M796,714c-6.66,6.73-13.65,13.14-19,21,.17-5,4.23-7.67,6.9-11.07s5.87-6.21,8.91-9.22C793.6,713.88,794.48,712.35,796,714Z"/><path class="cls-42" d="M853,807.13c-2.67,3.39-4,3.36-5.85-.18a5.45,5.45,0,0,1-.82-2.32c.23-13.15-2.4-26.46,1.92-39.37.82-2.45,1.18-5.67,4.7-6.28a30,30,0,0,1-1.5,9.72c-1.28,4.65-.17,9.58.48,14.34.54,4,.91,7.82-.1,11.75a8,8,0,0,0,.54,6.13C853.55,803,853.23,805,853,807.13Z"/><path class="cls-43" d="M853,807.13c-3.18-2.73-3.4-6.55-2.84-10.11a46.55,46.55,0,0,0-.37-17.81c-1.65-7.29.51-13.74,3.16-20.23q.95,2.58,1.91,5.16c-.93,10.71-.14,21.44-.4,32.15.09,3.62-.87,7.08-1.51,10.59Z"/><path class="cls-44" d="M860,777.93c-.4,2.63,1.36,4.69,2,7.06,2,7.68-3.33,12.71-6.18,18.64-3,.47-2.81-1.64-2.53-3.37a35.46,35.46,0,0,0,.72-7.41,7.69,7.69,0,0,1,.2-1.59c.85-3.49-.87-7.64,2.66-10.45l.19.15C858.12,780.08,856.28,776.3,860,777.93Z"/><path class="cls-45" d="M856.81,780.81,855,792c-2.86-7.06-1.24-14.42-1.38-21.65,0-1,1-1.66,2.15-1.34C856.49,772.94,855.55,777,856.81,780.81Z"/><path class="cls-46" d="M855.78,769.05c-3.43,5.11-1.45,10.76-1.55,16.19A47.86,47.86,0,0,0,855,792v-.11c-1.86,1.19,1.24,4.43-2.08,5q0-12.13,0-24.25c0-3,.12-6,1.91-8.55C855.15,765.78,855.46,767.42,855.78,769.05Z"/><path class="cls-45" d="M852.94,796.94l2.08-5c.7,3.87-2.26,8,.74,11.7-.1,1.82-1.43,2.56-2.83,3.25C851.16,803.56,852.29,800.25,852.94,796.94Z"/><path class="cls-47" d="M860,777.93c-1.41.6-2.12,1.89-3,3,.4-3.38.79-6.76,1.26-10.68A13.12,13.12,0,0,1,860,777.93Z"/><path class="cls-2" d="M1023.91,908.92c-2.46-3.08-6-2.52-9.19-2.46-29.66.59-59.32-1.17-89,1.71-14.68,1.42-29.61.3-44.43.22-6.48,0-13,.42-19.43-.28Q742,908,622.11,908q-94.14-.12-188.3-.46c-2.66,0-5.7,1-7.91-1.61-2.58-1.88-4,.4-5.5,1.7-6.49,5.49-13.51,9.75-22.34,9.87-2.4,0-3.94,1.47-5.51,2.94-1.28,1.82-.88,3.79-.63,5.78a34.56,34.56,0,0,0,.63,3.44c-3.08-12.78-8.85-25.07-7-38.75-3.44-5.06-3.1-10.25-.65-15.59a28,28,0,0,1,6.82-9.71c1.26-1.1,2.72-2.08,1.83-4.12-.75-2.51-2.39-4.62-3.11-7.17-1.18-4.19-3.53-7.23-8.39-7.29-6,1-11.45,3.46-16.69,6.35C347.92,863,332.7,875.56,318,888.78L303.37,903.7H0V1024H382.17v-.1q318.66,0,637.31.1c3.91,0,4.53-1.06,4.51-4.67C1023.85,982.52,1023.91,945.72,1023.91,908.92ZM393.05,931.84l-.24-1.09c.56,2.29,1.22,4.67,1.67,7.34C393.91,935.56,393.45,933.69,393.05,931.84Z"/></g></g></svg>